<svg width="2984" height="901" viewBox="0 0 2984 901" fill="none" xmlns="http://www.w3.org/2000/svg">
<path d="M1287.93 333.964H1277.27L1229.17 469.961H1336.03L1287.93 333.964ZM1353.32 518.769H1211.64L1178 614.014H1147.67C1140.88 614.014 1136.3 611.724 1133.93 607.143C1132.03 602.879 1132.03 597.745 1133.93 591.743L1236.28 302.926C1239.12 294.712 1244.97 288.473 1253.81 284.208C1262.82 279.944 1272.37 277.811 1282.48 277.811C1292.43 277.811 1301.83 279.944 1310.68 284.208C1319.68 288.473 1325.68 294.712 1328.68 302.926L1439.09 614.014H1405.92C1393.29 614.014 1384.84 607.854 1380.57 595.534L1353.32 518.769Z" fill="#454545"/>
<path d="M1509.44 535.117C1509.44 547.753 1513.39 557.467 1521.29 564.259C1527.45 569.788 1535.11 572.552 1544.27 572.552V594.823C1544.27 605.722 1539.37 612.514 1529.58 615.199C1521.37 617.726 1513 616.779 1504.47 612.356C1491.2 606.196 1480.85 597.034 1473.43 584.872C1464.74 571.446 1460.4 554.861 1460.4 535.117V305.058C1460.4 287.841 1469.4 279.233 1487.41 279.233H1509.44V535.117Z" fill="#454545"/>
<path d="M1867.66 462.143C1867.66 444.136 1863.48 430.631 1855.1 421.628C1846.89 413.256 1834.41 409.07 1817.67 409.07C1802.19 409.07 1790.18 413.572 1781.66 422.575C1772.49 432.368 1767.91 445.557 1767.91 462.143V614.014H1746.12C1727.95 614.014 1718.87 605.406 1718.87 588.189V462.143C1718.87 445.557 1714.29 432.368 1705.13 422.575C1696.28 413.572 1684.28 409.07 1669.11 409.07C1652.06 409.07 1639.58 413.256 1631.68 421.628C1623.47 430.631 1619.36 444.136 1619.36 462.143V614.014H1597.32C1579.32 614.014 1570.31 605.406 1570.31 588.189V462.143C1570.31 431.184 1579.08 406.385 1596.61 387.747C1613.99 369.266 1638.16 360.026 1669.11 360.026C1694.86 360.026 1716.42 367.529 1733.8 382.534C1736.01 384.272 1739.25 387.431 1743.51 392.011C1746.83 388.378 1749.83 385.298 1752.51 382.771C1769.73 367.608 1791.45 360.026 1817.67 360.026C1848.31 360.026 1872.56 369.266 1890.41 387.747C1907.78 406.227 1916.47 431.026 1916.47 462.143V614.014H1894.67C1876.66 614.014 1867.66 605.406 1867.66 588.189V462.143Z" fill="#454545"/>
<path d="M2071.4 360.026C2102.36 360.026 2129.53 369.582 2152.91 388.694C2177.07 408.754 2189.16 433.237 2189.16 462.143V614.014H2174.7C2162.38 614.014 2153.22 607.38 2147.22 594.112C2136.95 603.747 2125.18 610.697 2111.92 614.962C2098.65 619.227 2085.14 621.359 2071.4 621.359C2039.65 621.359 2012.41 611.882 1989.66 592.928C1965.49 573.026 1953.41 548.543 1953.41 519.479V462.143C1953.41 433.237 1965.49 408.754 1989.66 388.694C2012.88 369.582 2040.13 360.026 2071.4 360.026ZM2121.63 426.129C2107.89 414.757 2091.15 409.07 2071.4 409.07C2051.66 409.07 2034.84 414.757 2020.94 426.129C2008.62 436.396 2002.46 448.401 2002.46 462.143V519.479C2002.46 533.221 2008.62 545.226 2020.94 555.493C2034.84 566.865 2051.66 572.552 2071.4 572.552C2091.15 572.552 2107.89 566.865 2121.63 555.493C2133.95 545.542 2140.11 533.537 2140.11 519.479V462.143C2140.11 448.243 2133.95 436.238 2121.63 426.129Z" fill="#454545"/>
<path d="M2462.08 519.479C2462.08 548.543 2450 573.026 2425.83 592.928C2403.08 611.882 2375.92 621.359 2344.33 621.359C2312.58 621.359 2285.33 611.882 2262.58 592.928C2238.42 573.026 2226.33 548.543 2226.33 519.479V462.143C2226.33 433.237 2238.42 408.754 2262.58 388.694C2285.8 369.582 2313.05 360.026 2344.33 360.026C2369.44 360.026 2392.34 366.502 2413.04 379.454V305.058C2413.04 287.841 2422.04 279.233 2440.04 279.233H2462.08V519.479ZM2413.04 519.479V462.143C2413.04 448.243 2406.87 436.238 2394.55 426.129C2380.81 414.757 2364.07 409.07 2344.33 409.07C2324.58 409.07 2307.76 414.757 2293.86 426.129C2281.54 436.396 2275.38 448.401 2275.38 462.143V519.479C2275.38 533.221 2281.54 545.226 2293.86 555.493C2307.76 566.865 2324.58 572.552 2344.33 572.552C2364.07 572.552 2380.81 566.865 2394.55 555.493C2406.87 545.542 2413.04 533.537 2413.04 519.479Z" fill="#454545"/>
<path d="M2614.41 360.026C2625.46 360.026 2636.52 360.895 2647.58 362.632C2658.79 364.37 2669.45 367.687 2679.56 372.583C2692.04 379.217 2702.23 387.826 2710.13 398.408C2719.29 411.045 2723.87 425.26 2723.87 441.056C2724.03 453.85 2721.18 465.854 2715.34 477.069C2710.28 486.388 2703.41 494.207 2694.73 500.525C2686.04 507.159 2676.24 511.898 2665.35 514.741C2655.4 517.426 2644.58 518.769 2632.89 518.769H2573.65C2569.71 518.769 2566.78 518.611 2564.89 518.295C2561.26 517.505 2558.57 516.241 2556.83 514.504V535.117C2556.83 546.647 2562.68 555.888 2574.37 562.838C2584 568.524 2595.14 571.762 2607.77 572.552C2619.14 573.815 2630.99 572.947 2643.31 569.945C2652.16 568.05 2659.9 564.654 2666.53 559.757C2668.43 558.494 2670.48 556.598 2672.69 554.071C2680.27 545.384 2689.99 543.962 2701.83 549.806L2725.53 561.416C2721.26 571.683 2715.26 580.686 2707.52 588.426C2696.3 599.641 2682.41 608.012 2665.82 613.54C2650.97 618.753 2634.94 621.359 2617.72 621.359C2603.03 621.359 2590.32 620.017 2579.58 617.331C2565.99 614.33 2554.23 609.355 2544.28 602.405C2532.11 594.349 2522.95 583.45 2516.79 569.709C2510.79 557.388 2507.79 543.33 2507.79 527.535V447.69C2507.79 435.369 2510.55 423.365 2516.08 411.676C2524.61 394.302 2538.35 381.113 2557.31 372.109C2574.05 364.054 2593.08 360.026 2614.41 360.026ZM2638.1 469.961C2647.42 469.961 2655.32 468.066 2661.79 464.275C2669.53 459.694 2673.95 452.823 2675.06 443.662C2675.85 434.501 2672.93 426.998 2666.29 421.154C2661.4 417.047 2655.71 414.125 2649.23 412.387C2642.76 410.65 2636.44 409.544 2630.28 409.07C2616.06 408.123 2603.51 408.991 2592.61 411.676C2582.5 414.204 2574.29 418.153 2567.97 423.523C2560.54 429.999 2556.83 437.739 2556.83 446.742V469.961H2638.1Z" fill="#454545"/>
<path d="M2758.2 457.878C2758.2 430.236 2769.81 406.701 2793.03 387.273C2814.67 369.108 2840.58 360.026 2870.74 360.026C2900.91 360.026 2926.9 369.108 2948.69 387.273C2971.91 407.017 2983.52 430.552 2983.52 457.878C2983.52 483.94 2983.52 510.002 2983.52 536.065C2983.52 561.969 2983.52 587.952 2983.52 614.014C2979.73 614.014 2976.02 614.014 2972.39 614.014C2968.75 614.014 2965.12 614.014 2961.49 614.014C2943.48 614.014 2934.48 605.406 2934.48 588.189V457.878C2934.48 445.399 2928.79 434.422 2917.42 424.945C2904.63 414.362 2889.07 409.07 2870.74 409.07C2852.42 409.07 2836.86 414.362 2824.07 424.945C2812.86 434.422 2807.25 445.399 2807.25 457.878V614.014C2803.46 614.014 2799.75 614.014 2796.11 614.014C2792.48 614.014 2788.85 614.014 2785.21 614.014C2767.21 614.014 2758.2 605.406 2758.2 588.189V457.878Z" fill="#454545"/>
<path fill-rule="evenodd" clip-rule="evenodd" d="M386.458 161.08H764.889C864.831 161.08 946.805 242.864 945.683 342.574V719.007C945.683 818.717 864.831 900.501 763.766 900.501H386.458C286.516 900.501 204.541 819.837 204.541 719.007V342.574C204.541 242.864 285.393 161.08 386.458 161.08ZM582.973 278.717C652.595 278.717 714.357 322.409 737.939 386.268L899.642 790.71H682.914L480.785 278.717H582.973ZM266.303 790.71L324.696 643.946C348.278 578.966 410.039 536.394 479.662 536.394H581.85L481.908 790.71H266.303ZM423.515 341.455C423.515 377.306 394.318 406.434 358.384 406.434C322.45 406.434 293.254 377.306 293.254 341.455C293.254 305.604 322.45 276.476 358.384 276.476C394.318 276.476 423.515 305.604 423.515 341.455Z" fill="#50BFD7"/>
<path d="M0.165527 105.063C0.165527 47.9263 47.3292 0.87207 104.599 0.87207C161.869 0.87207 209.032 47.9263 209.032 105.063C209.032 162.201 161.869 209.254 104.599 209.254C47.3292 209.254 0.165527 162.201 0.165527 105.063Z" fill="#50BFD7"/>
<path d="M2977.66 787.018C2972.76 790.026 2966.07 791.529 2957.6 791.529C2948.66 791.529 2941.73 788.641 2936.83 782.864C2931.92 777.086 2929.47 769.252 2929.47 759.359C2929.47 748.913 2932.04 740.643 2937.18 734.549C2942.17 728.693 2948.86 725.765 2957.24 725.765C2960.57 725.765 2963.93 726.24 2967.33 727.189V697.156H2977.66V787.018ZM2967.33 782.864V733.006C2964.41 732.215 2961.75 731.819 2959.38 731.819C2952.5 731.819 2947.39 734.549 2944.07 740.01C2941.22 744.521 2939.79 750.694 2939.79 758.528C2939.79 775.939 2945.89 784.644 2958.07 784.644C2962.43 784.644 2965.51 784.051 2967.33 782.864Z" fill="#50BFD7"/>
<path d="M2915.08 790.342H2904.64V697.156H2915.08V790.342Z" fill="#50BFD7"/>
<path d="M2894.04 725.29L2891.55 733.243C2889.49 732.61 2887.39 732.294 2885.26 732.294C2881.85 732.294 2879.08 733.006 2876.95 734.43V790.342H2866.5V729.801C2872.99 726.477 2882.17 724.973 2894.04 725.29Z" fill="#50BFD7"/>
<path d="M2852.91 758.41C2852.91 768.302 2850.93 776.176 2846.97 782.033C2842.62 788.364 2836.29 791.529 2827.98 791.529C2819.67 791.529 2813.3 788.364 2808.87 782.033C2804.91 776.176 2802.93 768.302 2802.93 758.41C2802.93 748.359 2804.95 740.445 2808.99 734.668C2813.34 728.337 2819.63 725.171 2827.86 725.171C2836.25 725.171 2842.62 728.337 2846.97 734.668C2850.93 740.366 2852.91 748.28 2852.91 758.41ZM2842.46 758.41C2842.46 740.682 2837.64 731.819 2827.98 731.819C2818.25 731.819 2813.38 740.682 2813.38 758.41C2813.38 775.662 2818.25 784.288 2827.98 784.288C2837.64 784.288 2842.46 775.662 2842.46 758.41Z" fill="#50BFD7"/>
<path d="M2797.11 708.671L2778 790.342H2768.38L2754.61 733.362C2753.9 730.355 2753.31 727.308 2752.83 724.222H2752.59C2752.2 726.754 2751.68 729.801 2751.05 733.362L2737.16 790.342H2727.55L2708.43 708.671H2719.71L2731.46 767.669C2732.02 770.597 2732.49 773.723 2732.89 777.047H2733.13C2733.36 775.543 2733.96 772.417 2734.91 767.669L2749.03 708.671H2757.34L2771.35 767.669C2771.98 770.36 2772.54 773.486 2773.01 777.047H2773.25C2773.41 775.385 2773.88 772.259 2774.67 767.669L2787.02 708.671H2797.11Z" fill="#50BFD7"/>
<path d="M2667.03 756.51L2626.78 762.327C2627.97 776.73 2634.46 783.932 2646.25 783.932C2652.5 783.932 2657.77 782.705 2662.04 780.252L2664.77 787.137C2659.94 790.065 2653.49 791.529 2645.42 791.529C2636.71 791.529 2629.87 788.799 2624.88 783.338C2619.58 777.561 2616.93 769.172 2616.93 758.172C2616.93 747.568 2619.34 739.337 2624.17 733.481C2628.76 727.941 2634.93 725.171 2642.69 725.171C2659.15 725.171 2667.26 735.618 2667.03 756.51ZM2657.05 752.118C2657.05 738.664 2652.15 731.938 2642.33 731.938C2637.43 731.938 2633.59 733.916 2630.82 737.873C2627.81 742.147 2626.35 748.438 2626.43 756.748L2657.05 752.118Z" fill="#50BFD7"/>
<path d="M2609.98 726.358L2589.21 790.342H2579.83L2558.58 726.358H2569.74L2583.15 772.18C2583.94 774.87 2584.5 777.482 2584.81 780.015H2585.05C2585.13 778.827 2585.65 776.216 2586.6 772.18L2600.25 726.358H2609.98Z" fill="#50BFD7"/>
<path d="M2547.75 708.315C2547.75 709.897 2547.16 711.243 2545.97 712.351C2544.79 713.459 2543.36 714.013 2541.7 714.013C2539.96 714.013 2538.49 713.459 2537.31 712.351C2536.12 711.243 2535.53 709.897 2535.53 708.315C2535.53 706.732 2536.12 705.386 2537.31 704.279C2538.49 703.091 2539.96 702.498 2541.7 702.498C2543.36 702.498 2544.79 703.091 2545.97 704.279C2547.16 705.386 2547.75 706.732 2547.75 708.315ZM2546.92 790.342H2536.48V726.358H2546.92V790.342Z" fill="#50BFD7"/>
<path d="M2523.62 789.986C2521.48 790.619 2519.58 790.936 2517.92 790.936C2512.54 790.936 2508.43 789.234 2505.58 785.831C2503.2 782.903 2502.02 779.223 2502.02 774.791V732.887H2494.66V726.358H2502.02V711.638L2512.46 708.433V726.358H2523.62V732.887H2512.46V774.554C2512.46 780.727 2515.15 783.813 2520.53 783.813C2521.17 783.813 2522.2 783.655 2523.62 783.338V789.986Z" fill="#50BFD7"/>
<path d="M2486.69 787.256C2483.52 790.105 2478.73 791.529 2472.32 791.529C2465.2 791.529 2459.34 788.522 2454.75 782.507C2450.24 776.493 2447.99 768.421 2447.99 758.291C2447.99 748.003 2450.32 739.852 2454.99 733.837C2459.42 728.06 2465.28 725.171 2472.56 725.171C2478.73 725.171 2483.44 726.596 2486.69 729.445L2484.19 735.499C2481.42 733.441 2478.26 732.412 2474.7 732.412C2463.93 732.412 2458.55 740.92 2458.55 757.935C2458.55 765.77 2459.9 771.982 2462.59 776.572C2465.36 781.399 2469.28 783.813 2474.34 783.813C2477.9 783.813 2481.15 782.784 2484.07 780.727L2486.69 787.256Z" fill="#50BFD7"/>
<path d="M2434.45 787.018C2429.07 790.026 2421.99 791.529 2413.2 791.529C2396.98 791.529 2388.87 785.238 2388.87 772.655C2388.87 764.82 2392.35 758.964 2399.31 755.086C2404.85 751.999 2413.28 749.863 2424.6 748.676V744.758C2424.6 736.29 2419.89 732.056 2410.47 732.056C2405.57 732.056 2400.42 733.402 2395.04 736.092L2392.55 729.92C2398.32 726.754 2404.85 725.171 2412.13 725.171C2427.01 725.171 2434.45 732.096 2434.45 745.945V787.018ZM2424.6 783.338V754.017C2415.66 755.125 2409.36 756.827 2405.72 759.122C2401.13 761.971 2398.84 766.403 2398.84 772.417C2398.84 781.122 2403.9 785.475 2414.03 785.475C2418.47 785.475 2421.99 784.763 2424.6 783.338Z" fill="#50BFD7"/>
<path d="M2380.22 756.51L2339.98 762.327C2341.17 776.73 2347.66 783.932 2359.45 783.932C2365.7 783.932 2370.97 782.705 2375.24 780.252L2377.97 787.137C2373.14 790.065 2366.69 791.529 2358.62 791.529C2349.91 791.529 2343.07 788.799 2338.08 783.338C2332.78 777.561 2330.13 769.172 2330.13 758.172C2330.13 747.568 2332.54 739.337 2337.37 733.481C2341.96 727.941 2348.13 725.171 2355.89 725.171C2372.35 725.171 2380.46 735.618 2380.22 756.51ZM2370.25 752.118C2370.25 738.664 2365.35 731.938 2355.53 731.938C2350.63 731.938 2346.79 733.916 2344.02 737.873C2341.01 742.147 2339.55 748.438 2339.63 756.748L2370.25 752.118Z" fill="#50BFD7"/>
<path d="M2321.32 790.342H2308.98L2282.15 752.237H2281.91V790.342H2271.11V711.876C2276.41 708.948 2283.18 707.484 2291.41 707.484C2300.59 707.484 2307.55 709.62 2312.3 713.894C2317.05 718.088 2319.42 724.024 2319.42 731.7C2319.42 738.585 2317.17 744.006 2312.66 747.963C2308.22 751.92 2302.21 753.978 2294.61 754.136V754.374L2321.32 790.342ZM2308.62 732.175C2308.62 719.988 2302.8 713.894 2291.17 713.894C2287.13 713.894 2284.05 714.487 2281.91 715.675V749.863C2283.49 750.337 2285.83 750.575 2288.91 750.575C2302.05 750.575 2308.62 744.442 2308.62 732.175Z" fill="#50BFD7"/>
<path d="M2222.15 787.018C2216.77 790.026 2209.69 791.529 2200.9 791.529C2184.68 791.529 2176.57 785.238 2176.57 772.655C2176.57 764.82 2180.05 758.964 2187.02 755.086C2192.56 751.999 2200.98 749.863 2212.3 748.676V744.758C2212.3 736.29 2207.59 732.056 2198.17 732.056C2193.27 732.056 2188.12 733.402 2182.74 736.092L2180.25 729.92C2186.03 726.754 2192.56 725.171 2199.84 725.171C2214.71 725.171 2222.15 732.096 2222.15 745.945V787.018ZM2212.3 783.338V754.017C2203.36 755.125 2197.07 756.827 2193.43 759.122C2188.84 761.971 2186.54 766.403 2186.54 772.417C2186.54 781.122 2191.61 785.475 2201.74 785.475C2206.17 785.475 2209.69 784.763 2212.3 783.338Z" fill="#50BFD7"/>
<path d="M2137.91 725.29L2135.42 733.243C2133.36 732.61 2131.27 732.294 2129.13 732.294C2125.73 732.294 2122.96 733.006 2120.82 734.43V790.342H2110.37V729.801C2116.86 726.477 2126.04 724.973 2137.91 725.29Z" fill="#50BFD7"/>
<path d="M2096.78 758.41C2096.78 768.302 2094.8 776.176 2090.85 782.033C2086.49 788.364 2080.16 791.529 2071.85 791.529C2063.54 791.529 2057.17 788.364 2052.74 782.033C2048.79 776.176 2046.81 768.302 2046.81 758.41C2046.81 748.359 2048.82 740.445 2052.86 734.668C2057.21 728.337 2063.51 725.171 2071.74 725.171C2080.12 725.171 2086.49 728.337 2090.85 734.668C2094.8 740.366 2096.78 748.28 2096.78 758.41ZM2086.34 758.41C2086.34 740.682 2081.51 731.819 2071.85 731.819C2062.12 731.819 2057.25 740.682 2057.25 758.41C2057.25 775.662 2062.12 784.288 2071.85 784.288C2081.51 784.288 2086.34 775.662 2086.34 758.41Z" fill="#50BFD7"/>
<path d="M2039.71 732.887H2028.55V790.342H2018.1V732.887H2010.74V726.358H2018.1V717.336C2018.1 710.926 2019.96 705.901 2023.68 702.261C2027.48 698.541 2032.82 696.839 2039.71 697.156V703.804C2032.27 704.199 2028.55 708.315 2028.55 716.149V726.358H2039.71V732.887Z" fill="#50BFD7"/>
<path d="M1969.35 772.536C1969.35 777.601 1967.41 781.953 1963.54 785.594C1959.42 789.392 1954.2 791.292 1947.87 791.292C1940.82 791.292 1935.36 789.828 1931.49 786.9L1934.33 780.015C1937.34 782.547 1941.5 783.813 1946.8 783.813C1950.28 783.813 1953.13 782.784 1955.35 780.727C1957.56 778.59 1958.67 775.939 1958.67 772.773C1958.67 769.608 1957.84 767.115 1956.18 765.295C1954.51 763.474 1951.82 761.892 1948.1 760.546C1938.13 756.827 1933.15 750.852 1933.15 742.621C1933.15 737.715 1934.89 733.56 1938.37 730.157C1941.93 726.754 1946.56 725.053 1952.26 725.053C1957.88 725.053 1962.86 726.517 1967.22 729.445L1964.49 735.736C1961.32 733.362 1957.76 732.175 1953.8 732.175C1950.48 732.175 1947.87 733.164 1945.97 735.143C1944.07 737.042 1943.12 739.416 1943.12 742.265C1943.12 747.251 1946.68 751.089 1953.8 753.78C1964.17 757.737 1969.35 763.989 1969.35 772.536Z" fill="#50BFD7"/>
<path d="M1923.26 789.986C1921.12 790.619 1919.22 790.936 1917.56 790.936C1912.18 790.936 1908.07 789.234 1905.22 785.831C1902.84 782.903 1901.66 779.223 1901.66 774.791V732.887H1894.3V726.358H1901.66V711.638L1912.1 708.433V726.358H1923.26V732.887H1912.1V774.554C1912.1 780.727 1914.79 783.813 1920.17 783.813C1920.81 783.813 1921.84 783.655 1923.26 783.338V789.986Z" fill="#50BFD7"/>
<path d="M1882.28 790.342H1871.83V744.996C1871.83 736.607 1867.48 732.412 1858.77 732.412C1854.02 732.412 1849.87 733.481 1846.31 735.618V790.342H1835.86V697.156H1846.31V729.682C1851.45 727.071 1856.36 725.765 1861.03 725.765C1868.47 725.765 1874.05 727.783 1877.77 731.819C1880.77 735.143 1882.28 739.416 1882.28 744.639V790.342Z" fill="#50BFD7"/>
<path d="M1819.79 791.648C1819.79 799.72 1817.62 805.972 1813.26 810.404C1808.91 814.915 1802.9 817.17 1795.22 817.17C1786.83 817.17 1780.22 815.706 1775.39 812.778L1778.6 805.774C1783.03 808.307 1787.98 809.573 1793.44 809.573C1804.28 809.573 1809.7 803.994 1809.7 792.835V788.324C1806.62 790.144 1802.34 791.054 1796.88 791.054C1789.2 791.054 1783.07 788.245 1778.48 782.626C1773.97 776.928 1771.71 769.212 1771.71 759.478C1771.71 749.032 1774.21 740.722 1779.19 734.549C1784.26 728.297 1791.46 725.171 1800.8 725.171C1808.79 725.171 1815.12 726.675 1819.79 729.682V791.648ZM1809.7 782.27V733.243C1807.56 732.056 1804.52 731.463 1800.56 731.463C1788.22 731.463 1782.04 740.682 1782.04 759.122C1782.04 776.295 1787.9 784.882 1799.61 784.882C1803.49 784.882 1806.85 784.011 1809.7 782.27Z" fill="#50BFD7"/>
<path d="M1758.39 708.315C1758.39 709.897 1757.8 711.243 1756.61 712.351C1755.43 713.459 1754 714.013 1752.34 714.013C1750.6 714.013 1749.14 713.459 1747.95 712.351C1746.76 711.243 1746.17 709.897 1746.17 708.315C1746.17 706.732 1746.76 705.386 1747.95 704.279C1749.14 703.091 1750.6 702.498 1752.34 702.498C1754 702.498 1755.43 703.091 1756.61 704.279C1757.8 705.386 1758.39 706.732 1758.39 708.315ZM1757.56 790.342H1747.12V726.358H1757.56V790.342Z" fill="#50BFD7"/>
<path d="M1733.19 772.536C1733.19 777.601 1731.25 781.953 1727.38 785.594C1723.26 789.392 1718.04 791.292 1711.71 791.292C1704.66 791.292 1699.2 789.828 1695.33 786.9L1698.17 780.015C1701.18 782.547 1705.34 783.813 1710.64 783.813C1714.12 783.813 1716.97 782.784 1719.19 780.727C1721.4 778.59 1722.51 775.939 1722.51 772.773C1722.51 769.608 1721.68 767.115 1720.02 765.295C1718.35 763.474 1715.66 761.892 1711.94 760.546C1701.97 756.827 1696.99 750.852 1696.99 742.621C1696.99 737.715 1698.73 733.56 1702.21 730.157C1705.77 726.754 1710.4 725.053 1716.1 725.053C1721.72 725.053 1726.7 726.517 1731.06 729.445L1728.33 735.736C1725.16 733.362 1721.6 732.175 1717.64 732.175C1714.32 732.175 1711.71 733.164 1709.81 735.143C1707.91 737.042 1706.96 739.416 1706.96 742.265C1706.96 747.251 1710.52 751.089 1717.64 753.78C1728.01 757.737 1733.19 763.989 1733.19 772.536Z" fill="#50BFD7"/>
<path d="M1683.19 790.342H1672.75V744.402C1672.75 736.092 1668.28 731.938 1659.33 731.938C1654.74 731.938 1650.71 732.689 1647.22 734.193V790.342H1636.78V729.682C1643.03 726.675 1650.82 725.171 1660.16 725.171C1668.31 725.171 1674.37 727.189 1678.33 731.225C1681.57 734.549 1683.19 738.862 1683.19 744.165V790.342Z" fill="#50BFD7"/>
<path d="M1619.57 790.342H1608.65V708.671H1619.57V790.342Z" fill="#50BFD7"/>
<path d="M1562.02 756.51L1521.78 762.327C1522.97 776.73 1529.45 783.932 1541.25 783.932C1547.5 783.932 1552.76 782.705 1557.03 780.252L1559.76 787.137C1554.94 790.065 1548.49 791.529 1540.42 791.529C1531.71 791.529 1524.86 788.799 1519.88 783.338C1514.58 777.561 1511.93 769.172 1511.93 758.172C1511.93 747.568 1514.34 739.337 1519.17 733.481C1523.76 727.941 1529.93 725.171 1537.68 725.171C1554.15 725.171 1562.26 735.618 1562.02 756.51ZM1552.05 752.118C1552.05 738.664 1547.14 731.938 1537.33 731.938C1532.42 731.938 1528.58 733.916 1525.81 737.873C1522.81 742.147 1521.34 748.438 1521.42 756.748L1552.05 752.118Z" fill="#50BFD7"/>
<path d="M1504.98 726.358L1484.2 790.342H1474.82L1453.58 726.358H1464.73L1478.15 772.18C1478.94 774.87 1479.49 777.482 1479.81 780.015H1480.05C1480.13 778.827 1480.64 776.216 1481.59 772.18L1495.24 726.358H1504.98Z" fill="#50BFD7"/>
<path d="M1442.75 708.315C1442.75 709.897 1442.15 711.243 1440.97 712.351C1439.78 713.459 1438.36 714.013 1436.69 714.013C1434.95 714.013 1433.49 713.459 1432.3 712.351C1431.11 711.243 1430.52 709.897 1430.52 708.315C1430.52 706.732 1431.11 705.386 1432.3 704.279C1433.49 703.091 1434.95 702.498 1436.69 702.498C1438.36 702.498 1439.78 703.091 1440.97 704.279C1442.15 705.386 1442.75 706.732 1442.75 708.315ZM1441.92 790.342H1431.47V726.358H1441.92V790.342Z" fill="#50BFD7"/>
<path d="M1418.62 789.986C1416.48 790.619 1414.58 790.936 1412.92 790.936C1407.54 790.936 1403.42 789.234 1400.57 785.831C1398.2 782.903 1397.01 779.223 1397.01 774.791V732.887H1389.65V726.358H1397.01V711.638L1407.46 708.433V726.358H1418.62V732.887H1407.46V774.554C1407.46 780.727 1410.15 783.813 1415.53 783.813C1416.16 783.813 1417.19 783.655 1418.62 783.338V789.986Z" fill="#50BFD7"/>
<path d="M1381.68 787.256C1378.52 790.105 1373.73 791.529 1367.32 791.529C1360.2 791.529 1354.34 788.522 1349.75 782.507C1345.24 776.493 1342.98 768.421 1342.98 758.291C1342.98 748.003 1345.32 739.852 1349.99 733.837C1354.42 728.06 1360.27 725.171 1367.56 725.171C1373.73 725.171 1378.44 726.596 1381.68 729.445L1379.19 735.499C1376.42 733.441 1373.25 732.412 1369.69 732.412C1358.93 732.412 1353.55 740.92 1353.55 757.935C1353.55 765.77 1354.89 771.982 1357.58 776.572C1360.35 781.399 1364.27 783.813 1369.34 783.813C1372.9 783.813 1376.14 782.784 1379.07 780.727L1381.68 787.256Z" fill="#50BFD7"/>
<path d="M1329.45 787.018C1324.07 790.026 1316.98 791.529 1308.2 791.529C1291.97 791.529 1283.86 785.238 1283.86 772.655C1283.86 764.82 1287.35 758.964 1294.31 755.086C1299.85 751.999 1308.28 749.863 1319.59 748.676V744.758C1319.59 736.29 1314.89 732.056 1305.47 732.056C1300.56 732.056 1295.42 733.402 1290.04 736.092L1287.54 729.92C1293.32 726.754 1299.85 725.171 1307.13 725.171C1322.01 725.171 1329.45 732.096 1329.45 745.945V787.018ZM1319.59 783.338V754.017C1310.65 755.125 1304.36 756.827 1300.72 759.122C1296.13 761.971 1293.83 766.403 1293.83 772.417C1293.83 781.122 1298.9 785.475 1309.03 785.475C1313.46 785.475 1316.98 784.763 1319.59 783.338Z" fill="#50BFD7"/>
<path d="M1273.48 758.41C1273.48 768.302 1271.5 776.176 1267.54 782.033C1263.19 788.364 1256.86 791.529 1248.55 791.529C1240.24 791.529 1233.87 788.364 1229.44 782.033C1225.48 776.176 1223.5 768.302 1223.5 758.41C1223.5 748.359 1225.52 740.445 1229.56 734.668C1233.91 728.337 1240.2 725.171 1248.43 725.171C1256.82 725.171 1263.19 728.337 1267.54 734.668C1271.5 740.366 1273.48 748.28 1273.48 758.41ZM1263.03 758.41C1263.03 740.682 1258.2 731.819 1248.55 731.819C1238.82 731.819 1233.95 740.682 1233.95 758.41C1233.95 775.662 1238.82 784.288 1248.55 784.288C1258.2 784.288 1263.03 775.662 1263.03 758.41Z" fill="#50BFD7"/>
<path d="M1217.62 725.29L1215.12 733.243C1213.07 732.61 1210.97 732.294 1208.83 732.294C1205.43 732.294 1202.66 733.006 1200.52 734.43V790.342H1190.08V729.801C1196.57 726.477 1205.75 724.973 1217.62 725.29Z" fill="#50BFD7"/>
<path d="M1177.57 732.175C1177.57 739.377 1175.35 745.193 1170.92 749.625C1165.93 754.532 1158.69 756.985 1149.2 756.985C1147.45 756.985 1145.59 756.906 1143.62 756.748L1139.94 756.392V790.342H1129.25V711.995C1134.48 708.987 1141.28 707.484 1149.67 707.484C1158.93 707.484 1165.97 709.818 1170.8 714.487C1175.31 718.761 1177.57 724.657 1177.57 732.175ZM1167 732.056C1167 720.027 1161.07 714.013 1149.2 714.013C1145.4 714.013 1142.31 714.527 1139.94 715.556V749.744L1143.5 750.1C1145.08 750.258 1146.58 750.337 1148.01 750.337C1160.67 750.337 1167 744.244 1167 732.056Z" fill="#50BFD7"/>
<path fill-rule="evenodd" clip-rule="evenodd" d="M2979.5 788.046L2978.62 788.584C2973.32 791.833 2966.26 793.365 2957.6 793.365C2948.23 793.365 2940.75 790.315 2935.43 784.052C2930.16 777.853 2927.63 769.552 2927.63 759.359C2927.63 748.616 2930.28 739.881 2935.78 733.365C2941.15 727.059 2948.37 723.929 2957.24 723.929C2959.98 723.929 2962.73 724.234 2965.5 724.84V695.32H2979.5V788.046ZM2967.33 727.189C2966.72 727.018 2966.11 726.862 2965.5 726.722C2962.72 726.084 2959.97 725.765 2957.24 725.765C2948.86 725.765 2942.17 728.693 2937.18 734.549C2932.04 740.643 2929.47 748.913 2929.47 759.359C2929.47 769.252 2931.92 777.086 2936.83 782.864C2941.73 788.641 2948.66 791.529 2957.6 791.529C2966.07 791.529 2972.76 790.026 2977.66 787.018V697.156H2967.33V727.189ZM2945.64 740.964L2945.62 740.99C2943.02 745.101 2941.63 750.888 2941.63 758.528C2941.63 767.076 2943.14 773.159 2945.87 777.062C2948.52 780.846 2952.48 782.808 2958.07 782.808C2961.61 782.808 2964.01 782.398 2965.5 781.763V734.436C2963.24 733.909 2961.2 733.655 2959.38 733.655C2953.08 733.655 2948.6 736.1 2945.64 740.964ZM2967.33 733.006V782.864C2965.51 784.051 2962.43 784.644 2958.07 784.644C2945.89 784.644 2939.79 775.939 2939.79 758.528C2939.79 750.694 2941.22 744.521 2944.07 740.01C2947.39 734.549 2952.5 731.819 2959.38 731.819C2961.75 731.819 2964.41 732.215 2967.33 733.006Z" fill="#50BFD7"/>
<path fill-rule="evenodd" clip-rule="evenodd" d="M2916.92 792.178H2902.8V695.32H2916.92V792.178ZM2915.08 790.342V697.156H2904.64V790.342H2915.08Z" fill="#50BFD7"/>
<path fill-rule="evenodd" clip-rule="evenodd" d="M2894.04 725.29C2893.39 725.273 2892.76 725.261 2892.13 725.254C2881.18 725.142 2872.64 726.658 2866.5 729.801V790.342H2876.95V734.43C2879.08 733.006 2881.85 732.294 2885.26 732.294C2887.39 732.294 2889.49 732.61 2891.55 733.243L2891.55 733.231L2894.04 725.29ZM2878.78 735.475C2880.44 734.61 2882.57 734.13 2885.26 734.13C2887.21 734.13 2889.12 734.419 2891.01 734.998L2892.75 735.535L2896.52 723.519L2894.09 723.455C2882.08 723.134 2872.55 724.641 2865.66 728.167L2864.66 728.678V792.178H2878.78V735.475Z" fill="#50BFD7"/>
<path fill-rule="evenodd" clip-rule="evenodd" d="M2846.97 782.033C2850.93 776.176 2852.91 768.302 2852.91 758.41C2852.91 748.28 2850.93 740.366 2846.97 734.668C2842.62 728.337 2836.25 725.171 2827.86 725.171C2819.63 725.171 2813.34 728.337 2808.99 734.668C2804.95 740.445 2802.93 748.359 2802.93 758.41C2802.93 768.302 2804.91 776.176 2808.87 782.033C2813.3 788.364 2819.67 791.529 2827.98 791.529C2836.29 791.529 2842.62 788.364 2846.97 782.033ZM2807.48 733.622C2803.16 739.813 2801.1 748.14 2801.1 758.41C2801.1 768.527 2803.12 776.802 2807.35 783.061L2807.36 783.085C2812.17 789.949 2819.12 793.365 2827.98 793.365C2836.84 793.365 2843.76 789.948 2848.49 783.073L2848.5 783.06C2852.72 776.802 2854.75 768.527 2854.75 758.41C2854.75 748.071 2852.73 739.741 2848.48 733.624C2843.75 726.746 2836.79 723.335 2827.86 723.335C2819.08 723.335 2812.2 726.756 2807.48 733.622ZM2827.98 731.819C2837.64 731.819 2842.46 740.682 2842.46 758.41C2842.46 775.662 2837.64 784.288 2827.98 784.288C2818.25 784.288 2813.38 775.662 2813.38 758.41C2813.38 740.682 2818.25 731.819 2827.98 731.819ZM2833.36 735.047C2831.87 734.139 2830.1 733.655 2827.98 733.655C2825.84 733.655 2824.04 734.14 2822.55 735.05C2821.04 735.963 2819.73 737.364 2818.64 739.35C2816.43 743.377 2815.22 749.654 2815.22 758.41C2815.22 766.923 2816.43 773.014 2818.63 776.916C2820.74 780.665 2823.79 782.452 2827.98 782.452C2830.11 782.452 2831.89 781.979 2833.38 781.093C2834.87 780.206 2836.16 778.846 2837.24 776.922C2839.43 773.017 2840.63 766.925 2840.63 758.41C2840.63 749.653 2839.42 743.374 2837.23 739.345C2836.15 737.358 2834.85 735.958 2833.36 735.047Z" fill="#50BFD7"/>
<path fill-rule="evenodd" clip-rule="evenodd" d="M2797.11 708.671H2787.02L2774.67 767.669C2774.42 769.111 2774.21 770.409 2774.02 771.562C2773.62 774.055 2773.36 775.873 2773.25 777.015C2773.25 777.026 2773.25 777.036 2773.25 777.047H2773.01C2773.01 777.039 2773.01 777.032 2773.01 777.024C2772.75 775.079 2772.47 773.265 2772.16 771.58C2771.9 770.187 2771.64 768.884 2771.35 767.669L2757.34 708.671H2749.03L2734.91 767.669C2734.58 769.294 2734.3 770.729 2734.06 771.973C2733.6 774.344 2733.29 776.025 2733.13 777.018C2733.13 777.028 2733.13 777.037 2733.13 777.047H2732.89C2732.89 777.034 2732.88 777.021 2732.88 777.009C2732.68 775.263 2732.44 773.572 2732.19 771.936C2731.97 770.47 2731.72 769.047 2731.46 767.669L2719.71 708.671H2708.43L2727.55 790.342H2737.16L2751.05 733.362C2751.32 731.825 2751.57 730.383 2751.8 729.037C2752.1 727.281 2752.36 725.689 2752.59 724.259C2752.59 724.247 2752.59 724.234 2752.59 724.222H2752.83C2752.83 724.234 2752.83 724.247 2752.84 724.26C2753.08 725.855 2753.36 727.44 2753.67 729.015C2753.96 730.473 2754.27 731.922 2754.61 733.362L2768.38 790.342H2778L2797.11 708.671ZM2752.83 733.81L2766.94 792.178H2779.45L2799.42 706.835H2785.53L2773 766.686L2758.79 706.835H2747.58L2733.19 766.945L2721.22 706.835H2706.12L2726.09 792.178H2738.6L2752.83 733.81Z" fill="#50BFD7"/>
<path fill-rule="evenodd" clip-rule="evenodd" d="M2626.78 762.327L2667.03 756.51C2667.26 735.618 2659.15 725.171 2642.69 725.171C2634.93 725.171 2628.76 727.941 2624.17 733.481C2619.34 739.337 2616.93 747.568 2616.93 758.172C2616.93 769.172 2619.58 777.561 2624.88 783.338C2629.87 788.799 2636.71 791.529 2645.42 791.529C2653.49 791.529 2659.94 790.065 2664.77 787.137L2662.04 780.252C2661.51 780.556 2660.96 780.842 2660.4 781.108C2656.45 782.991 2651.73 783.932 2646.25 783.932C2634.46 783.932 2627.97 776.73 2626.78 762.327ZM2628.78 763.893L2668.84 758.103L2668.86 756.531C2668.98 745.895 2666.99 737.573 2662.57 731.88C2658.08 726.1 2651.33 723.335 2642.69 723.335C2634.44 723.335 2627.73 726.313 2622.76 732.309C2617.57 738.604 2615.09 747.309 2615.09 758.172C2615.09 769.445 2617.81 778.345 2623.53 784.576C2628.92 790.486 2636.3 793.365 2645.42 793.365C2653.69 793.365 2660.51 791.868 2665.72 788.707L2667.05 787.902L2662.96 777.604L2661.13 778.66C2657.19 780.916 2652.27 782.096 2646.25 782.096C2640.75 782.096 2636.73 780.434 2633.9 777.302C2631.27 774.382 2629.51 769.983 2628.78 763.893ZM2642.33 731.938C2652.15 731.938 2657.05 738.664 2657.05 752.118L2626.43 756.748C2626.42 756.117 2626.42 755.497 2626.44 754.89C2626.58 747.494 2628.04 741.822 2630.82 737.873C2633.59 733.916 2637.43 731.938 2642.33 731.938ZM2628.28 754.611C2628.45 747.571 2629.87 742.412 2632.32 738.93C2634.74 735.473 2638.01 733.774 2642.33 733.774C2646.77 733.774 2649.85 735.264 2651.89 738.065C2653.84 740.735 2655.01 744.818 2655.19 750.542L2628.28 754.611Z" fill="#50BFD7"/>
<path fill-rule="evenodd" clip-rule="evenodd" d="M2609.98 726.358H2600.25L2586.6 772.18C2586.32 773.367 2586.07 774.431 2585.87 775.371C2585.39 777.602 2585.11 779.14 2585.05 779.985C2585.05 779.995 2585.05 780.005 2585.05 780.015H2584.81C2584.81 780.009 2584.81 780.004 2584.81 779.999C2584.62 778.487 2584.35 776.947 2583.99 775.379C2583.75 774.325 2583.47 773.259 2583.15 772.18L2569.74 726.358H2558.58L2579.83 790.342H2589.21L2609.98 726.358ZM2584.87 771.526L2571.11 724.522H2556.04L2578.5 792.178H2590.54L2612.51 724.522H2598.88L2584.87 771.526Z" fill="#50BFD7"/>
<path fill-rule="evenodd" clip-rule="evenodd" d="M2545.97 712.351C2547.16 711.243 2547.75 709.897 2547.75 708.315C2547.75 706.732 2547.16 705.386 2545.97 704.279C2544.79 703.091 2543.36 702.498 2541.7 702.498C2539.96 702.498 2538.49 703.091 2537.31 704.279C2536.12 705.386 2535.53 706.732 2535.53 708.315C2535.53 709.897 2536.12 711.243 2537.31 712.351C2538.49 713.459 2539.96 714.013 2541.7 714.013C2543.36 714.013 2544.79 713.459 2545.97 712.351ZM2536.03 702.958C2534.5 704.4 2533.69 706.219 2533.69 708.315C2533.69 710.421 2534.51 712.248 2536.05 713.693C2537.61 715.142 2539.53 715.849 2541.7 715.849C2543.81 715.849 2545.69 715.126 2547.22 713.693C2548.77 712.248 2549.59 710.421 2549.59 708.315C2549.59 706.219 2548.78 704.4 2547.25 702.958C2545.72 701.445 2543.84 700.662 2541.7 700.662C2539.5 700.662 2537.57 701.428 2536.03 702.958ZM2546.92 790.342V726.358H2536.48V790.342H2546.92ZM2548.76 792.178H2534.64V724.522H2548.76V792.178Z" fill="#50BFD7"/>
<path fill-rule="evenodd" clip-rule="evenodd" d="M2517.92 790.936C2519.58 790.936 2521.48 790.619 2523.62 789.986V783.338C2522.91 783.496 2522.3 783.615 2521.78 783.694C2521.27 783.773 2520.85 783.813 2520.53 783.813C2515.15 783.813 2512.46 780.727 2512.46 774.554V732.887H2523.62V726.358H2512.46V708.433L2502.02 711.638V726.358H2494.66V732.887H2502.02V774.791C2502.02 779.223 2503.2 782.903 2505.58 785.831C2508.43 789.234 2512.54 790.936 2517.92 790.936ZM2500.18 734.723V774.791C2500.18 779.567 2501.47 783.677 2504.15 786.988L2504.17 787.01C2507.44 790.918 2512.12 792.772 2517.92 792.772C2519.81 792.772 2521.89 792.414 2524.14 791.746L2525.46 791.357V781.05L2523.22 781.546C2521.8 781.861 2520.95 781.977 2520.53 781.977C2518.2 781.977 2516.76 781.319 2515.86 780.292C2514.93 779.217 2514.3 777.414 2514.3 774.554V734.723H2525.46V724.522H2514.3V705.95L2500.18 710.281V724.522H2492.82V734.723H2500.18Z" fill="#50BFD7"/>
<path fill-rule="evenodd" clip-rule="evenodd" d="M2472.32 791.529C2478.73 791.529 2483.52 790.105 2486.69 787.256L2484.07 780.727C2483.56 781.09 2483.03 781.421 2482.49 781.72C2479.99 783.116 2477.27 783.813 2474.34 783.813C2469.28 783.813 2465.36 781.399 2462.59 776.572C2459.9 771.982 2458.55 765.77 2458.55 757.935C2458.55 740.92 2463.93 732.412 2474.7 732.412C2477.61 732.412 2480.25 733.099 2482.63 734.471C2483.17 734.779 2483.69 735.122 2484.19 735.499L2486.69 729.445C2483.44 726.596 2478.73 725.171 2472.56 725.171C2465.28 725.171 2459.42 728.06 2454.99 733.837C2450.32 739.852 2447.99 748.003 2447.99 758.291C2447.99 768.421 2450.24 776.493 2454.75 782.507C2459.34 788.522 2465.2 791.529 2472.32 791.529ZM2453.53 732.719C2458.31 726.489 2464.71 723.335 2472.56 723.335C2478.99 723.335 2484.2 724.817 2487.9 728.065L2488.88 728.931L2484.99 738.38L2483.1 736.973C2480.66 735.158 2477.88 734.248 2474.7 734.248C2469.89 734.248 2466.47 736.096 2464.14 739.775C2461.72 743.595 2460.39 749.562 2460.39 757.935C2460.39 765.587 2461.71 771.438 2464.17 775.643L2464.18 775.658C2466.66 779.984 2470.01 781.977 2474.34 781.977C2477.52 781.977 2480.4 781.066 2483.02 779.225L2484.92 777.891L2488.87 787.763L2487.91 788.62C2484.28 791.895 2478.96 793.365 2472.32 793.365C2464.59 793.365 2458.21 790.058 2453.29 783.621L2453.29 783.609C2448.47 777.182 2446.15 768.681 2446.15 758.291C2446.15 747.742 2448.54 739.152 2453.53 732.719Z" fill="#50BFD7"/>
<path fill-rule="evenodd" clip-rule="evenodd" d="M2413.2 791.529C2421.99 791.529 2429.07 790.026 2434.45 787.018V745.945C2434.45 732.096 2427.01 725.171 2412.13 725.171C2404.85 725.171 2398.32 726.754 2392.55 729.92L2395.04 736.092C2395.6 735.814 2396.15 735.551 2396.7 735.301C2401.48 733.138 2406.07 732.056 2410.47 732.056C2419.89 732.056 2424.6 736.29 2424.6 744.758V748.676C2413.28 749.863 2404.85 751.999 2399.31 755.086C2392.35 758.964 2388.87 764.82 2388.87 772.655C2388.87 785.238 2396.98 791.529 2413.2 791.529ZM2422.76 747.031C2412.17 748.259 2404 750.373 2398.42 753.482C2394.7 755.551 2391.83 758.197 2389.9 761.448C2387.97 764.7 2387.03 768.457 2387.03 772.655C2387.03 779.371 2389.22 784.689 2393.83 788.261C2398.34 791.765 2404.9 793.365 2413.2 793.365C2422.18 793.365 2429.6 791.833 2435.35 788.621L2436.29 788.096V745.945C2436.29 738.702 2434.34 732.943 2430.12 729.021C2425.94 725.122 2419.83 723.335 2412.13 723.335C2404.58 723.335 2397.74 724.981 2391.67 728.309L2390.23 729.094L2394.08 738.624L2395.86 737.735C2401.05 735.143 2405.91 733.892 2410.47 733.892C2414.94 733.892 2417.95 734.902 2419.84 736.597C2421.69 738.259 2422.76 740.861 2422.76 744.758V747.031ZM2424.6 783.338C2421.99 784.763 2418.47 785.475 2414.03 785.475C2403.9 785.475 2398.84 781.122 2398.84 772.417C2398.84 766.403 2401.13 761.971 2405.72 759.122C2409.11 756.987 2414.79 755.366 2422.76 754.258C2423.36 754.175 2423.97 754.095 2424.6 754.017V783.338ZM2422.76 756.112V782.191C2420.6 783.123 2417.72 783.639 2414.03 783.639C2409.19 783.639 2405.9 782.592 2403.83 780.818C2401.82 779.09 2400.68 776.408 2400.68 772.417C2400.68 766.952 2402.71 763.153 2406.69 760.682L2406.7 760.675C2409.72 758.774 2414.99 757.21 2422.76 756.112Z" fill="#50BFD7"/>
<path fill-rule="evenodd" clip-rule="evenodd" d="M2339.98 762.327L2380.22 756.51C2380.46 735.618 2372.35 725.171 2355.89 725.171C2348.13 725.171 2341.96 727.941 2337.37 733.481C2332.54 739.337 2330.13 747.568 2330.13 758.172C2330.13 769.172 2332.78 777.561 2338.08 783.338C2343.07 788.799 2349.91 791.529 2358.62 791.529C2366.69 791.529 2373.14 790.065 2377.97 787.137L2375.24 780.252C2374.71 780.556 2374.16 780.842 2373.6 781.108C2369.64 782.991 2364.93 783.932 2359.45 783.932C2347.66 783.932 2341.17 776.73 2339.98 762.327ZM2341.98 763.893L2382.04 758.103L2382.06 756.531C2382.18 745.895 2380.19 737.573 2375.77 731.88C2371.28 726.1 2364.53 723.335 2355.89 723.335C2347.64 723.335 2340.93 726.313 2335.96 732.309C2330.77 738.604 2328.29 747.309 2328.29 758.172C2328.29 769.445 2331.01 778.345 2336.73 784.576C2342.12 790.486 2349.5 793.365 2358.62 793.365C2366.89 793.365 2373.71 791.868 2378.92 788.707L2380.25 787.902L2376.16 777.604L2374.32 778.66C2370.39 780.916 2365.47 782.096 2359.45 782.096C2353.95 782.096 2349.93 780.434 2347.1 777.302C2344.47 774.382 2342.7 769.983 2341.98 763.893ZM2355.53 731.938C2365.35 731.938 2370.25 738.664 2370.25 752.118L2339.63 756.748C2339.62 756.117 2339.62 755.497 2339.63 754.89C2339.78 747.494 2341.24 741.822 2344.02 737.873C2346.79 733.916 2350.63 731.938 2355.53 731.938ZM2341.48 754.611C2341.65 747.571 2343.07 742.412 2345.52 738.93C2347.94 735.473 2351.21 733.774 2355.53 733.774C2359.97 733.774 2363.05 735.264 2365.09 738.065C2367.04 740.735 2368.21 744.818 2368.39 750.542L2341.48 754.611Z" fill="#50BFD7"/>
<path fill-rule="evenodd" clip-rule="evenodd" d="M2321.32 790.342L2294.61 754.374V754.136C2294.72 754.134 2294.83 754.131 2294.94 754.128C2295.52 754.112 2296.09 754.084 2296.65 754.045C2303.29 753.586 2308.63 751.559 2312.66 747.963C2317.17 744.006 2319.42 738.585 2319.42 731.7C2319.42 724.024 2317.05 718.088 2312.3 713.894C2307.55 709.62 2300.59 707.484 2291.41 707.484C2283.18 707.484 2276.41 708.948 2271.11 711.876V790.342H2281.91V752.237H2282.15L2308.98 790.342H2321.32ZM2283.75 757.696L2308.02 792.178H2324.97L2297.94 755.78C2304.37 755.15 2309.72 753.042 2313.87 749.339C2318.84 744.981 2321.26 739.025 2321.26 731.7C2321.26 723.623 2318.74 717.14 2313.52 712.525C2308.32 707.841 2300.84 705.648 2291.41 705.648C2282.97 705.648 2275.87 707.146 2270.22 710.269L2269.27 710.792V792.178H2283.75V757.696ZM2291.17 713.894C2302.8 713.894 2308.62 719.988 2308.62 732.175C2308.62 744.442 2302.05 750.575 2288.91 750.575C2285.83 750.575 2283.49 750.337 2281.91 749.863V715.675C2284.05 714.487 2287.13 713.894 2291.17 713.894ZM2283.75 716.832C2285.47 716.136 2287.91 715.73 2291.17 715.73C2296.68 715.73 2300.48 717.169 2302.93 719.732C2305.39 722.311 2306.78 726.344 2306.78 732.175C2306.78 737.992 2305.23 742.026 2302.44 744.633C2299.62 747.262 2295.23 748.739 2288.91 748.739C2286.73 748.739 2285.03 748.616 2283.75 748.4V716.832Z" fill="#50BFD7"/>
<path fill-rule="evenodd" clip-rule="evenodd" d="M2200.9 791.529C2209.69 791.529 2216.77 790.026 2222.15 787.018V745.945C2222.15 732.096 2214.71 725.171 2199.84 725.171C2192.56 725.171 2186.03 726.754 2180.25 729.92L2182.74 736.092C2183.3 735.814 2183.85 735.551 2184.4 735.301C2189.18 733.138 2193.77 732.056 2198.17 732.056C2207.59 732.056 2212.3 736.29 2212.3 744.758V748.676C2200.98 749.863 2192.56 751.999 2187.02 755.086C2180.05 758.964 2176.57 764.82 2176.57 772.655C2176.57 785.238 2184.68 791.529 2200.9 791.529ZM2210.46 747.031C2199.87 748.259 2191.7 750.373 2186.12 753.482C2182.41 755.551 2179.54 758.197 2177.6 761.448C2175.67 764.7 2174.73 768.457 2174.73 772.655C2174.73 779.371 2176.92 784.689 2181.53 788.261C2186.04 791.765 2192.61 793.365 2200.9 793.365C2209.88 793.365 2217.3 791.833 2223.05 788.621L2223.99 788.096V745.945C2223.99 738.702 2222.04 732.943 2217.82 729.021C2213.64 725.122 2207.53 723.335 2199.84 723.335C2192.28 723.335 2185.44 724.981 2179.37 728.309L2177.94 729.094L2181.78 738.624L2183.56 737.735C2188.75 735.143 2193.61 733.892 2198.17 733.892C2202.65 733.892 2205.66 734.902 2207.54 736.597C2209.39 738.259 2210.46 740.861 2210.46 744.758V747.031ZM2212.3 783.338C2209.69 784.763 2206.17 785.475 2201.74 785.475C2191.61 785.475 2186.54 781.122 2186.54 772.417C2186.54 766.403 2188.84 761.971 2193.43 759.122C2196.81 756.987 2202.49 755.366 2210.46 754.258C2211.06 754.175 2211.68 754.095 2212.3 754.017V783.338ZM2210.46 756.112V782.191C2208.3 783.123 2205.42 783.639 2201.74 783.639C2196.89 783.639 2193.6 782.592 2191.54 780.818C2189.52 779.09 2188.38 776.408 2188.38 772.417C2188.38 766.952 2190.41 763.153 2194.39 760.682L2194.4 760.675C2197.42 758.774 2202.7 757.21 2210.46 756.112Z" fill="#50BFD7"/>
<path fill-rule="evenodd" clip-rule="evenodd" d="M2137.91 725.29C2137.27 725.273 2136.63 725.261 2136 725.254C2125.05 725.142 2116.51 726.658 2110.37 729.801V790.342H2120.82V734.43C2122.96 733.006 2125.73 732.294 2129.13 732.294C2131.27 732.294 2133.36 732.61 2135.42 733.243C2135.42 733.243 2135.42 733.244 2135.42 733.243L2137.91 725.29ZM2122.66 735.475C2124.31 734.61 2126.44 734.13 2129.13 734.13C2131.08 734.13 2133 734.419 2134.88 734.998L2136.63 735.535L2140.39 723.519L2137.96 723.455C2125.96 723.134 2116.42 724.641 2109.54 728.167L2108.54 728.678V792.178H2122.66V735.475Z" fill="#50BFD7"/>
<path fill-rule="evenodd" clip-rule="evenodd" d="M2090.85 782.033C2094.8 776.176 2096.78 768.302 2096.78 758.41C2096.78 748.28 2094.8 740.366 2090.85 734.668C2086.49 728.337 2080.12 725.171 2071.74 725.171C2063.51 725.171 2057.21 728.337 2052.86 734.668C2048.82 740.445 2046.81 748.359 2046.81 758.41C2046.81 768.302 2048.79 776.176 2052.74 782.033C2057.17 788.364 2063.54 791.529 2071.85 791.529C2080.16 791.529 2086.49 788.364 2090.85 782.033ZM2092.36 733.624C2096.6 739.741 2098.62 748.071 2098.62 758.41C2098.62 768.527 2096.6 776.802 2092.37 783.06L2092.36 783.073C2087.63 789.948 2080.71 793.365 2071.85 793.365C2063 793.365 2056.04 789.949 2051.24 783.085L2051.22 783.061C2046.99 776.802 2044.97 768.527 2044.97 758.41C2044.97 748.14 2047.03 739.813 2051.35 733.622C2056.07 726.756 2062.95 723.335 2071.74 723.335C2080.66 723.335 2087.63 726.746 2092.36 733.624ZM2071.85 731.819C2081.51 731.819 2086.34 740.682 2086.34 758.41C2086.34 775.662 2081.51 784.288 2071.85 784.288C2062.12 784.288 2057.25 775.662 2057.25 758.41C2057.25 740.682 2062.12 731.819 2071.85 731.819ZM2077.23 735.047C2075.75 734.139 2073.98 733.655 2071.85 733.655C2069.71 733.655 2067.92 734.14 2066.42 735.05C2064.92 735.963 2063.6 737.364 2062.51 739.35C2060.3 743.377 2059.09 749.654 2059.09 758.41C2059.09 766.923 2060.3 773.014 2062.5 776.916C2064.62 780.665 2067.66 782.452 2071.85 782.452C2073.99 782.452 2075.76 781.979 2077.25 781.093C2078.74 780.206 2080.04 778.846 2081.11 776.922C2083.3 773.017 2084.5 766.925 2084.5 758.41C2084.5 749.653 2083.3 743.374 2081.1 739.345C2080.02 737.358 2078.72 735.958 2077.23 735.047Z" fill="#50BFD7"/>
<path fill-rule="evenodd" clip-rule="evenodd" d="M2041.54 734.723H2030.38V792.178H2016.27V734.723H2008.91V724.522H2016.27V717.336C2016.27 710.554 2018.25 705.011 2022.4 700.948C2026.66 696.775 2032.56 694.989 2039.79 695.322L2041.54 695.403V705.545L2039.81 705.637C2036.4 705.818 2034.14 706.83 2032.7 708.418C2031.25 710.021 2030.38 712.5 2030.38 716.149V724.522H2041.54V734.723ZM2028.55 726.358V716.149C2028.55 708.315 2032.27 704.199 2039.71 703.804V697.156C2032.82 696.839 2027.48 698.541 2023.68 702.261C2019.96 705.901 2018.1 710.926 2018.1 717.336V726.358H2010.74V732.887H2018.1V790.342H2028.55V732.887H2039.71V726.358H2028.55Z" fill="#50BFD7"/>
<path fill-rule="evenodd" clip-rule="evenodd" d="M1963.54 785.594C1967.41 781.953 1969.35 777.601 1969.35 772.536C1969.35 763.989 1964.17 757.737 1953.8 753.78C1946.68 751.089 1943.12 747.251 1943.12 742.265C1943.12 739.416 1944.07 737.042 1945.97 735.143C1947.87 733.164 1950.48 732.175 1953.8 732.175C1957.13 732.175 1960.17 733.013 1962.94 734.69C1963.47 735.008 1963.98 735.357 1964.49 735.736L1967.22 729.445C1962.86 726.517 1957.88 725.053 1952.26 725.053C1946.56 725.053 1941.93 726.754 1938.37 730.157C1934.89 733.56 1933.15 737.715 1933.15 742.621C1933.15 750.852 1938.13 756.827 1948.1 760.546C1951.82 761.892 1954.51 763.474 1956.18 765.295C1957.84 767.115 1958.67 769.608 1958.67 772.773C1958.67 775.939 1957.56 778.59 1955.35 780.727C1953.13 782.784 1950.28 783.813 1946.8 783.813C1942.34 783.813 1938.7 782.919 1935.86 781.129C1935.32 780.79 1934.81 780.418 1934.33 780.015L1931.49 786.9C1935.36 789.828 1940.82 791.292 1947.87 791.292C1954.2 791.292 1959.42 789.392 1963.54 785.594ZM1964.79 786.932L1964.78 786.943C1960.28 791.096 1954.59 793.128 1947.87 793.128C1940.6 793.128 1934.69 791.62 1930.38 788.365L1929.25 787.509L1933.6 776.994L1935.52 778.61C1938.09 780.78 1941.78 781.977 1946.8 781.977C1949.89 781.977 1952.26 781.08 1954.08 779.393C1955.92 777.616 1956.83 775.45 1956.83 772.773C1956.83 769.931 1956.09 767.927 1954.82 766.533C1953.45 765.026 1951.07 763.572 1947.48 762.273L1947.46 762.267C1942.28 760.335 1938.24 757.758 1935.48 754.452C1932.69 751.114 1931.31 747.14 1931.31 742.621C1931.31 737.225 1933.25 732.595 1937.09 728.844L1937.1 728.83C1941.06 725.049 1946.17 723.217 1952.26 723.217C1958.22 723.217 1963.56 724.775 1968.24 727.921L1969.51 728.774L1965.24 738.6L1963.38 737.205C1960.54 735.069 1957.36 734.011 1953.8 734.011C1950.86 734.011 1948.77 734.871 1947.29 736.414L1947.27 736.441C1945.73 737.973 1944.95 739.87 1944.95 742.265C1944.95 746.107 1947.6 749.476 1954.45 752.062C1959.83 754.114 1964.02 756.822 1966.88 760.265C1969.76 763.738 1971.19 767.859 1971.19 772.536C1971.19 778.136 1969.02 782.965 1964.79 786.932Z" fill="#50BFD7"/>
<path fill-rule="evenodd" clip-rule="evenodd" d="M1917.56 790.936C1919.22 790.936 1921.12 790.619 1923.26 789.986V783.338C1922.55 783.496 1921.94 783.615 1921.42 783.694C1920.91 783.773 1920.49 783.813 1920.17 783.813C1914.79 783.813 1912.1 780.727 1912.1 774.554V732.887H1923.26V726.358H1912.1V708.433L1901.66 711.638V726.358H1894.3V732.887H1901.66V774.791C1901.66 779.223 1902.84 782.903 1905.22 785.831C1908.07 789.234 1912.18 790.936 1917.56 790.936ZM1899.82 734.723V774.791C1899.82 779.567 1901.11 783.677 1903.79 786.988L1903.81 787.01C1907.08 790.918 1911.76 792.772 1917.56 792.772C1919.45 792.772 1921.53 792.414 1923.78 791.746L1925.1 791.357V781.05L1922.86 781.546C1921.44 781.861 1920.59 781.977 1920.17 781.977C1917.84 781.977 1916.4 781.319 1915.5 780.292C1914.57 779.217 1913.94 777.414 1913.94 774.554V734.723H1925.1V724.522H1913.94V705.95L1899.82 710.281V724.522H1892.46V734.723H1899.82Z" fill="#50BFD7"/>
<path fill-rule="evenodd" clip-rule="evenodd" d="M1884.11 792.178H1869.99V744.996C1869.99 741.102 1868.99 738.515 1867.29 736.88C1865.58 735.234 1862.86 734.248 1858.77 734.248C1854.71 734.248 1851.18 735.077 1848.14 736.689V792.178H1834.03V695.32H1848.14V726.795C1852.55 724.903 1856.85 723.929 1861.03 723.929C1868.79 723.929 1874.94 726.041 1879.12 730.575L1879.13 730.587C1882.49 734.304 1884.11 739.041 1884.11 744.639V792.178ZM1848.14 728.801C1847.53 729.076 1846.92 729.37 1846.31 729.682V697.156H1835.86V790.342H1846.31V735.618C1849.87 733.481 1854.02 732.412 1858.77 732.412C1867.48 732.412 1871.83 736.607 1871.83 744.996V790.342H1882.28V744.639C1882.28 739.416 1880.77 735.143 1877.77 731.819C1874.05 727.783 1868.47 725.765 1861.03 725.765C1856.92 725.765 1852.62 726.777 1848.14 728.801Z" fill="#50BFD7"/>
<path fill-rule="evenodd" clip-rule="evenodd" d="M1813.26 810.404C1817.62 805.972 1819.79 799.72 1819.79 791.648V729.682C1815.12 726.675 1808.79 725.171 1800.8 725.171C1791.46 725.171 1784.26 728.297 1779.19 734.549C1774.21 740.722 1771.71 749.032 1771.71 759.478C1771.71 769.212 1773.97 776.928 1778.48 782.626C1783.07 788.245 1789.2 791.054 1796.88 791.054C1801.33 791.054 1804.99 790.45 1807.87 789.241C1808.52 788.967 1809.13 788.661 1809.7 788.324V792.835C1809.7 803.994 1804.28 809.573 1793.44 809.573C1788.64 809.573 1784.23 808.594 1780.23 806.635C1779.68 806.366 1779.13 806.08 1778.6 805.774L1775.39 812.778C1780.22 815.706 1786.83 817.17 1795.22 817.17C1802.9 817.17 1808.91 814.915 1813.26 810.404ZM1814.58 811.685C1809.81 816.628 1803.27 819.006 1795.22 819.006C1786.65 819.006 1779.66 817.515 1774.44 814.348L1773.05 813.5L1777.77 803.183L1779.51 804.18C1783.65 806.543 1788.27 807.737 1793.44 807.737C1798.56 807.737 1802.07 806.422 1804.32 804.109C1806.58 801.787 1807.87 798.144 1807.87 792.835V791.217C1804.82 792.359 1801.13 792.89 1796.88 792.89C1788.69 792.89 1782.02 789.861 1777.06 783.788L1777.04 783.766C1772.2 777.648 1769.88 769.486 1769.88 759.478C1769.88 748.746 1772.44 739.986 1777.77 733.396C1783.24 726.641 1791.01 723.335 1800.8 723.335C1809 723.335 1815.72 724.874 1820.79 728.139L1821.63 728.681V791.648C1821.63 800.048 1819.36 806.816 1814.58 811.685ZM1809.7 733.243V782.27C1806.85 784.011 1803.49 784.882 1799.61 784.882C1787.9 784.882 1782.04 776.295 1782.04 759.122C1782.04 740.682 1788.22 731.463 1800.56 731.463C1804.52 731.463 1807.56 732.056 1809.7 733.243ZM1807.87 734.4V781.2C1805.53 782.414 1802.8 783.046 1799.61 783.046C1794.27 783.046 1790.49 781.129 1787.95 777.407C1785.33 773.559 1783.88 767.557 1783.88 759.122C1783.88 750.049 1785.41 743.566 1788.2 739.399C1790.9 735.362 1794.92 733.299 1800.56 733.299C1803.75 733.299 1806.15 733.703 1807.87 734.4Z" fill="#50BFD7"/>
<path fill-rule="evenodd" clip-rule="evenodd" d="M1756.61 712.351C1757.8 711.243 1758.39 709.897 1758.39 708.315C1758.39 706.732 1757.8 705.386 1756.61 704.279C1755.43 703.091 1754 702.498 1752.34 702.498C1750.6 702.498 1749.14 703.091 1747.95 704.279C1746.76 705.386 1746.17 706.732 1746.17 708.315C1746.17 709.897 1746.76 711.243 1747.95 712.351C1749.14 713.459 1750.6 714.013 1752.34 714.013C1754 714.013 1755.43 713.459 1756.61 712.351ZM1746.67 702.958C1745.14 704.4 1744.33 706.219 1744.33 708.315C1744.33 710.421 1745.15 712.248 1746.7 713.693C1748.25 715.142 1750.17 715.849 1752.34 715.849C1754.46 715.849 1756.33 715.126 1757.87 713.693C1759.41 712.248 1760.23 710.421 1760.23 708.315C1760.23 706.219 1759.42 704.4 1757.89 702.958C1756.37 701.445 1754.48 700.662 1752.34 700.662C1750.14 700.662 1748.21 701.428 1746.67 702.958ZM1757.56 790.342V726.358H1747.12V790.342H1757.56ZM1759.4 792.178H1745.28V724.522H1759.4V792.178Z" fill="#50BFD7"/>
<path fill-rule="evenodd" clip-rule="evenodd" d="M1727.38 785.594C1731.25 781.953 1733.19 777.601 1733.19 772.536C1733.19 763.989 1728.01 757.737 1717.64 753.78C1710.52 751.089 1706.96 747.251 1706.96 742.265C1706.96 739.416 1707.91 737.042 1709.81 735.143C1711.71 733.164 1714.32 732.175 1717.64 732.175C1720.97 732.175 1724.01 733.013 1726.78 734.69C1727.3 735.008 1727.82 735.357 1728.33 735.736L1731.06 729.445C1726.7 726.517 1721.72 725.053 1716.1 725.053C1710.4 725.053 1705.77 726.754 1702.21 730.157C1698.73 733.56 1696.99 737.715 1696.99 742.621C1696.99 750.852 1701.97 756.827 1711.94 760.546C1715.66 761.892 1718.35 763.474 1720.02 765.295C1721.68 767.115 1722.51 769.608 1722.51 772.773C1722.51 775.939 1721.4 778.59 1719.19 780.727C1716.97 782.784 1714.12 783.813 1710.64 783.813C1706.18 783.813 1702.54 782.919 1699.7 781.129C1699.16 780.79 1698.65 780.418 1698.17 780.015L1695.33 786.9C1699.2 789.828 1704.66 791.292 1711.71 791.292C1718.04 791.292 1723.26 789.392 1727.38 785.594ZM1728.63 786.932L1728.62 786.943C1724.12 791.096 1718.43 793.128 1711.71 793.128C1704.44 793.128 1698.53 791.62 1694.22 788.365L1693.09 787.509L1697.44 776.994L1699.36 778.61C1701.93 780.78 1705.62 781.977 1710.64 781.977C1713.73 781.977 1716.1 781.08 1717.92 779.393C1719.76 777.616 1720.67 775.45 1720.67 772.773C1720.67 769.931 1719.93 767.927 1718.66 766.533C1717.29 765.026 1714.91 763.572 1711.32 762.273L1711.3 762.267C1706.12 760.335 1702.08 757.758 1699.32 754.452C1696.53 751.114 1695.15 747.14 1695.15 742.621C1695.15 737.225 1697.09 732.595 1700.93 728.844L1700.94 728.83C1704.9 725.049 1710.01 723.217 1716.1 723.217C1722.06 723.217 1727.4 724.775 1732.08 727.921L1733.35 728.774L1729.08 738.6L1727.22 737.205C1724.38 735.069 1721.2 734.011 1717.64 734.011C1714.7 734.011 1712.61 734.871 1711.13 736.414L1711.11 736.441C1709.57 737.973 1708.79 739.87 1708.79 742.265C1708.79 746.107 1711.44 749.476 1718.29 752.062C1723.67 754.114 1727.86 756.822 1730.72 760.265C1733.6 763.738 1735.03 767.859 1735.03 772.536C1735.03 778.136 1732.86 782.965 1728.63 786.932Z" fill="#50BFD7"/>
<path fill-rule="evenodd" clip-rule="evenodd" d="M1683.19 790.342V744.165C1683.19 738.862 1681.57 734.549 1678.33 731.225C1674.37 727.189 1668.31 725.171 1660.16 725.171C1650.82 725.171 1643.03 726.675 1636.78 729.682V790.342H1647.22V734.193C1650.71 732.689 1654.74 731.938 1659.33 731.938C1668.28 731.938 1672.75 736.092 1672.75 744.402V790.342H1683.19ZM1649.06 735.435C1652.02 734.34 1655.44 733.774 1659.33 733.774C1663.55 733.774 1666.38 734.757 1668.14 736.399C1669.88 738.017 1670.91 740.566 1670.91 744.402V792.178H1685.03V744.165C1685.03 738.456 1683.27 733.659 1679.64 729.943C1675.21 725.424 1668.59 723.335 1660.16 723.335C1650.64 723.335 1642.55 724.867 1635.98 728.028L1634.94 728.528V792.178H1649.06V735.435Z" fill="#50BFD7"/>
<path fill-rule="evenodd" clip-rule="evenodd" d="M1619.57 790.342V708.671H1608.65V790.342H1619.57ZM1621.41 792.178H1606.82V706.835H1621.41V792.178Z" fill="#50BFD7"/>
<path fill-rule="evenodd" clip-rule="evenodd" d="M1521.78 762.327L1562.02 756.51C1562.26 735.618 1554.15 725.171 1537.68 725.171C1529.93 725.171 1523.76 727.941 1519.17 733.481C1514.34 739.337 1511.93 747.568 1511.93 758.172C1511.93 769.172 1514.58 777.561 1519.88 783.338C1524.86 788.799 1531.71 791.529 1540.42 791.529C1548.49 791.529 1554.94 790.065 1559.76 787.137L1557.03 780.252C1556.5 780.556 1555.96 780.842 1555.4 781.108C1551.44 782.991 1546.72 783.932 1541.25 783.932C1529.45 783.932 1522.97 776.73 1521.78 762.327C1521.78 762.327 1521.78 762.327 1521.78 762.327ZM1523.78 763.893L1563.84 758.103L1563.86 756.531C1563.98 745.895 1561.99 737.573 1557.56 731.88C1553.08 726.1 1546.33 723.335 1537.68 723.335C1529.43 723.335 1522.72 726.313 1517.75 732.309C1512.56 738.604 1510.09 747.309 1510.09 758.172C1510.09 769.447 1512.81 778.348 1518.53 784.58C1523.92 790.487 1531.3 793.365 1540.42 793.365C1548.69 793.365 1555.5 791.868 1560.72 788.707L1562.04 787.902L1557.96 777.604L1556.12 778.66C1552.19 780.916 1547.26 782.096 1541.25 782.096C1535.75 782.096 1531.72 780.434 1528.9 777.302C1526.27 774.382 1524.5 769.983 1523.78 763.893ZM1537.33 731.938C1547.14 731.938 1552.05 738.664 1552.05 752.118L1521.42 756.748C1521.42 756.117 1521.42 755.497 1521.43 754.89C1521.57 747.494 1523.04 741.822 1525.81 737.873C1528.58 733.916 1532.42 731.938 1537.33 731.938ZM1523.27 754.611C1523.45 747.571 1524.86 742.412 1527.32 738.93C1529.74 735.473 1533.01 733.774 1537.33 733.774C1541.77 733.774 1544.84 735.264 1546.89 738.065C1548.83 740.735 1550.01 744.818 1550.19 750.542L1523.27 754.611Z" fill="#50BFD7"/>
<path fill-rule="evenodd" clip-rule="evenodd" d="M1504.98 726.358H1495.24L1481.59 772.18C1481.31 773.367 1481.07 774.431 1480.87 775.371C1480.38 777.602 1480.11 779.14 1480.05 779.985C1480.05 779.995 1480.05 780.005 1480.05 780.015H1479.81C1479.81 780.009 1479.81 780.004 1479.81 779.999C1479.62 778.487 1479.34 776.947 1478.99 775.379C1478.74 774.326 1478.47 773.259 1478.15 772.18L1464.73 726.358H1453.58L1474.82 790.342H1484.2L1504.98 726.358ZM1479.87 771.526L1466.11 724.522H1451.03L1473.5 792.178H1485.54L1507.5 724.522H1493.87L1479.87 771.526Z" fill="#50BFD7"/>
<path fill-rule="evenodd" clip-rule="evenodd" d="M1440.97 712.351C1442.15 711.243 1442.75 709.897 1442.75 708.315C1442.75 706.732 1442.15 705.386 1440.97 704.279C1439.78 703.091 1438.36 702.498 1436.69 702.498C1434.95 702.498 1433.49 703.091 1432.3 704.279C1431.11 705.386 1430.52 706.732 1430.52 708.315C1430.52 709.897 1431.11 711.243 1432.3 712.351C1433.49 713.459 1434.95 714.013 1436.69 714.013C1438.36 714.013 1439.78 713.459 1440.97 712.351ZM1431.03 702.958C1429.49 704.4 1428.68 706.219 1428.68 708.315C1428.68 710.421 1429.5 712.248 1431.05 713.693C1432.6 715.142 1434.52 715.849 1436.69 715.849C1438.81 715.849 1440.68 715.126 1442.22 713.693C1443.77 712.248 1444.58 710.421 1444.58 708.315C1444.58 706.219 1443.78 704.399 1442.24 702.958C1440.72 701.445 1438.84 700.662 1436.69 700.662C1434.5 700.662 1432.57 701.428 1431.03 702.958ZM1431.47 790.342H1441.92V726.358H1431.47V790.342ZM1443.75 792.178H1429.63V724.522H1443.75V792.178Z" fill="#50BFD7"/>
<path fill-rule="evenodd" clip-rule="evenodd" d="M1412.92 790.936C1414.58 790.936 1416.48 790.619 1418.62 789.986V783.338C1417.91 783.496 1417.29 783.615 1416.78 783.694C1416.26 783.773 1415.85 783.813 1415.53 783.813C1410.15 783.813 1407.46 780.727 1407.46 774.554V732.887H1418.62V726.358H1407.46V708.433L1397.01 711.638V726.358H1389.65V732.887H1397.01V774.791C1397.01 779.223 1398.2 782.903 1400.57 785.831C1403.42 789.234 1407.54 790.936 1412.92 790.936ZM1395.17 734.723V774.791C1395.17 779.567 1396.46 783.677 1399.15 786.988L1399.16 787.01C1402.44 790.918 1407.12 792.772 1412.92 792.772C1414.8 792.772 1416.89 792.414 1419.14 791.746L1420.45 791.357V781.05L1418.22 781.546C1416.8 781.861 1415.94 781.977 1415.53 781.977C1413.19 781.977 1411.75 781.319 1410.86 780.292C1409.92 779.217 1409.29 777.414 1409.29 774.554V734.723H1420.45V724.522H1409.29V705.95L1395.17 710.281V724.522H1387.82V734.723H1395.17Z" fill="#50BFD7"/>
<path fill-rule="evenodd" clip-rule="evenodd" d="M1367.32 791.529C1373.73 791.529 1378.52 790.105 1381.68 787.256L1379.07 780.727C1378.55 781.09 1378.03 781.421 1377.49 781.72C1374.99 783.116 1372.27 783.813 1369.34 783.813C1364.27 783.813 1360.35 781.399 1357.58 776.572C1354.89 771.982 1353.55 765.77 1353.55 757.935C1353.55 740.92 1358.93 732.412 1369.69 732.412C1372.6 732.412 1375.25 733.099 1377.63 734.471C1378.16 734.779 1378.68 735.122 1379.19 735.499L1381.68 729.445C1378.44 726.596 1373.73 725.171 1367.56 725.171C1360.27 725.171 1354.42 728.06 1349.99 733.837C1345.32 739.852 1342.98 748.003 1342.98 758.291C1342.98 768.421 1345.24 776.493 1349.75 782.507C1354.34 788.522 1360.2 791.529 1367.32 791.529ZM1383.86 787.763L1382.91 788.62C1379.27 791.895 1373.96 793.365 1367.32 793.365C1359.58 793.365 1353.2 790.058 1348.29 783.621L1348.28 783.609C1343.46 777.182 1341.15 768.681 1341.15 758.291C1341.15 747.739 1343.54 739.148 1348.53 732.715C1353.31 726.488 1359.71 723.335 1367.56 723.335C1373.98 723.335 1379.19 724.817 1382.89 728.065L1383.88 728.931L1379.99 738.38L1378.09 736.973C1375.65 735.158 1372.87 734.248 1369.69 734.248C1364.89 734.248 1361.46 736.096 1359.14 739.775C1356.72 743.595 1355.38 749.562 1355.38 757.935C1355.38 765.587 1356.7 771.438 1359.17 775.643L1359.18 775.658C1361.66 779.984 1365 781.977 1369.34 781.977C1372.52 781.977 1375.39 781.066 1378.01 779.225L1379.91 777.891L1383.86 787.763Z" fill="#50BFD7"/>
<path fill-rule="evenodd" clip-rule="evenodd" d="M1308.2 791.529C1316.98 791.529 1324.07 790.026 1329.45 787.018V745.945C1329.45 732.096 1322.01 725.171 1307.13 725.171C1299.85 725.171 1293.32 726.754 1287.54 729.92L1290.04 736.092C1290.59 735.814 1291.15 735.551 1291.7 735.301C1296.48 733.138 1301.07 732.056 1305.47 732.056C1314.89 732.056 1319.59 736.29 1319.59 744.758V748.676C1308.28 749.863 1299.85 751.999 1294.31 755.086C1287.35 758.964 1283.86 764.82 1283.86 772.655C1283.86 785.238 1291.97 791.529 1308.2 791.529ZM1317.76 747.031V744.758C1317.76 740.861 1316.68 738.259 1314.84 736.597C1312.95 734.902 1309.94 733.892 1305.47 733.892C1300.9 733.892 1296.04 735.143 1290.86 737.735L1289.08 738.624L1285.23 729.094L1286.66 728.309C1292.74 724.981 1299.57 723.335 1307.13 723.335C1314.82 723.335 1320.93 725.122 1325.12 729.021C1329.33 732.943 1331.28 738.702 1331.28 745.945V788.096L1330.34 788.621C1324.6 791.833 1317.17 793.365 1308.2 793.365C1299.9 793.365 1293.34 791.765 1288.82 788.261C1284.22 784.689 1282.03 779.371 1282.03 772.655C1282.03 768.457 1282.96 764.7 1284.9 761.448C1286.83 758.197 1289.7 755.551 1293.42 753.482C1299 750.373 1307.16 748.259 1317.76 747.031ZM1319.59 783.338C1316.98 784.763 1313.46 785.475 1309.03 785.475C1298.9 785.475 1293.83 781.122 1293.83 772.417C1293.83 766.403 1296.13 761.971 1300.72 759.122C1304.11 756.987 1309.79 755.366 1317.76 754.258C1318.36 754.175 1318.97 754.095 1319.59 754.017V783.338ZM1317.76 756.112V782.191C1315.6 783.123 1312.72 783.639 1309.03 783.639C1304.19 783.639 1300.89 782.592 1298.83 780.818C1296.82 779.09 1295.67 776.408 1295.67 772.417C1295.67 766.952 1297.71 763.153 1301.69 760.682L1301.7 760.675C1304.71 758.774 1309.99 757.21 1317.76 756.112Z" fill="#50BFD7"/>
<path fill-rule="evenodd" clip-rule="evenodd" d="M1267.54 782.033C1271.5 776.176 1273.48 768.302 1273.48 758.41C1273.48 748.28 1271.5 740.366 1267.54 734.668C1263.19 728.337 1256.82 725.171 1248.43 725.171C1240.2 725.171 1233.91 728.337 1229.56 734.668C1225.52 740.445 1223.5 748.359 1223.5 758.41C1223.5 768.302 1225.48 776.176 1229.44 782.033C1233.87 788.364 1240.24 791.529 1248.55 791.529C1256.86 791.529 1263.19 788.364 1267.54 782.033ZM1228.05 733.622C1223.72 739.813 1221.67 748.14 1221.67 758.41C1221.67 768.527 1223.69 776.802 1227.92 783.06L1227.93 783.085C1232.74 789.949 1239.69 793.365 1248.55 793.365C1257.41 793.365 1264.33 789.948 1269.06 783.073L1269.06 783.06C1273.29 776.802 1275.31 768.527 1275.31 758.41C1275.31 748.071 1273.3 739.741 1269.05 733.624M1248.55 731.819C1258.2 731.819 1263.03 740.682 1263.03 758.41C1263.03 775.662 1258.2 784.288 1248.55 784.288C1238.82 784.288 1233.95 775.662 1233.95 758.41C1233.95 740.682 1238.82 731.819 1248.55 731.819ZM1253.93 735.047C1252.44 734.139 1250.67 733.655 1248.55 733.655C1246.4 733.655 1244.61 734.14 1243.11 735.05C1241.61 735.963 1240.3 737.364 1239.21 739.35C1237 743.377 1235.78 749.654 1235.78 758.41C1235.78 766.923 1237 773.014 1239.2 776.916C1241.31 780.665 1244.36 782.452 1248.55 782.452C1250.68 782.452 1252.46 781.979 1253.95 781.093C1255.43 780.206 1256.73 778.846 1257.81 776.922C1259.99 773.017 1261.2 766.925 1261.2 758.41C1261.2 749.653 1259.99 743.374 1257.8 739.345C1256.72 737.358 1255.42 735.958 1253.93 735.047Z" fill="#50BFD7"/>
<path fill-rule="evenodd" clip-rule="evenodd" d="M1217.62 725.29C1216.97 725.273 1216.33 725.261 1215.7 725.254C1204.76 725.142 1196.21 726.658 1190.08 729.801V790.342H1200.52V734.43C1202.66 733.006 1205.43 732.294 1208.83 732.294C1210.97 732.294 1213.07 732.61 1215.12 733.243C1215.12 733.243 1215.12 733.243 1215.12 733.243L1217.62 725.29ZM1202.36 735.475C1204.01 734.61 1206.14 734.13 1208.83 734.13C1210.79 734.13 1212.7 734.419 1214.58 734.998L1216.33 735.535L1220.1 723.519L1217.67 723.455C1205.66 723.134 1196.12 724.641 1189.24 728.167L1188.24 728.678V792.178H1202.36V735.475Z" fill="#50BFD7"/>
<path fill-rule="evenodd" clip-rule="evenodd" d="M1170.92 749.625C1175.35 745.193 1177.57 739.377 1177.57 732.175C1177.57 724.657 1175.31 718.761 1170.8 714.487C1165.97 709.818 1158.93 707.484 1149.67 707.484C1141.28 707.484 1134.48 708.987 1129.25 711.995V790.342H1139.94V756.392L1143.62 756.748C1145.59 756.906 1147.45 756.985 1149.2 756.985C1158.69 756.985 1165.93 754.532 1170.92 749.625ZM1141.77 758.414V792.178H1127.42V710.933L1128.34 710.403C1133.93 707.185 1141.08 705.648 1149.67 705.648C1159.22 705.648 1166.79 708.057 1172.07 713.161C1177.02 717.852 1179.4 724.27 1179.4 732.175C1179.4 739.785 1177.04 746.095 1172.22 750.923L1172.21 750.934C1166.77 756.285 1159 758.821 1149.2 758.821C1147.4 758.821 1145.49 758.739 1143.47 758.578L1143.44 758.575L1141.77 758.414ZM1149.2 714.013C1161.07 714.013 1167 720.027 1167 732.056C1167 744.244 1160.67 750.337 1148.01 750.337C1146.58 750.337 1145.08 750.258 1143.5 750.1L1139.94 749.744V715.556C1142.31 714.527 1145.4 714.013 1149.2 714.013ZM1141.77 716.823C1143.7 716.193 1146.16 715.849 1149.2 715.849C1154.84 715.849 1158.74 717.277 1161.24 719.813C1163.75 722.354 1165.17 726.319 1165.17 732.056C1165.17 737.849 1163.66 741.86 1160.98 744.444C1158.28 747.041 1154.07 748.501 1148.01 748.501C1146.65 748.501 1145.21 748.426 1143.68 748.273L1141.77 748.082V716.823Z" fill="#50BFD7"/>
</svg>
